<svg width="1164" height="501" viewBox="0 0 1164 501" fill="none" xmlns="http://www.w3.org/2000/svg">
<path d="M1084.32 269.301H1061.64V233.043H995.271V144.837H1084.32V269.301ZM1061.64 211.204V166.676H1017.96V211.204H1061.64Z" fill="#17294A"/>
<path d="M972.592 116.424V133.599H950.753V116.424H972.592ZM950.753 146.109H972.592V233.043H950.753V146.109Z" fill="#17294A"/>
<path d="M930.847 144.837V188.516H908.159V166.676H883.987V233.043H861.3V144.837H930.847Z" fill="#17294A"/>
<path d="M794.309 166.676V211.203H838.837V233.043H772.47V116H794.309V144.837H838.837V166.676H794.309Z" fill="#17294A"/>
<path d="M661.483 144.625H750.538V197.634H684.171V212.052H750.538V232.831H661.483V144.625ZM684.171 179.611H727.85V164.344H684.171V179.611Z" fill="#17294A"/>
<path d="M638.219 144.837V233.043H615.532V166.676H593.692V233.043H571.852V166.676H549.165V233.043H527.325V144.837H638.219Z" fill="#17294A"/>
<line x1="150.861" y1="163.472" x2="209.335" y2="163.472" stroke="#233F71" stroke-width="5.63607" stroke-linecap="round"/>
<line x1="150.861" y1="301.556" x2="356.577" y2="301.556" stroke="#233F71" stroke-width="5.63607" stroke-linecap="round"/>
<line x1="150.861" y1="232.514" x2="356.577" y2="232.514" stroke="#233F71" stroke-width="5.63607" stroke-linecap="round"/>
<line x1="150.861" y1="267.035" x2="356.577" y2="267.035" stroke="#233F71" stroke-width="5.63607" stroke-linecap="round"/>
<line x1="150.861" y1="336.076" x2="356.577" y2="336.077" stroke="#233F71" stroke-width="5.63607" stroke-linecap="round"/>
<path d="M255.127 71.1816C353.956 71.1816 434.072 151.298 434.072 250.127C434.072 292.478 419.334 331.429 394.74 362.07C393.768 363.281 393.874 364.978 394.898 366.003L434.973 406.077C438.274 409.379 438.274 414.732 434.973 418.033L427.999 425.008C424.698 428.309 419.345 428.309 416.043 425.008L376.414 385.379C375.359 384.324 373.599 384.248 372.391 385.297C341.001 412.546 299.977 429.072 255.127 429.072C156.298 429.072 76.1816 348.956 76.1816 250.127C76.1817 151.298 156.298 71.1817 255.127 71.1816ZM255.127 97.9531C171.084 97.9532 102.953 166.084 102.953 250.127C102.953 334.17 171.084 402.301 255.127 402.301C298.051 402.301 336.82 384.532 364.488 355.942L365.146 355.259C391.264 327.935 407.301 290.907 407.301 250.127C407.301 166.084 339.17 97.9531 255.127 97.9531Z" fill="#17294A" stroke="#A0B1CF" stroke-width="5.63607"/>
<line x1="150.861" y1="197.994" x2="356.577" y2="197.994" stroke="#233F71" stroke-width="5.63607" stroke-linecap="round"/>
<path d="M183.268 206.449C183.268 203.336 185.791 200.812 188.904 200.812H225.538C228.651 200.812 231.174 203.336 231.174 206.449V333.26H183.268V206.449Z" fill="url(#paint0_linear_2956_85)"/>
<path d="M279.08 240.968C279.08 237.855 281.603 235.332 284.716 235.332H321.351C324.463 235.332 326.987 237.855 326.987 240.968V333.259H279.08V240.968Z" fill="url(#paint1_linear_2956_85)"/>
<path d="M255.272 221.172C261.498 221.172 266.544 226.219 266.544 232.444C266.544 237.62 263.054 241.978 258.3 243.301V283.091C267.273 284.45 274.149 292.197 274.149 301.55C274.149 311.86 265.791 320.219 255.48 320.219L254.998 320.213C244.91 319.957 236.811 311.699 236.811 301.55C236.811 292.198 243.687 284.45 252.66 283.091V243.408C247.695 242.23 244 237.77 244 232.444C244 226.219 249.047 221.172 255.272 221.172ZM242.757 304.369C243.845 309.301 247.728 313.183 252.66 314.271V304.369H242.757ZM258.3 314.271C263.232 313.183 267.115 309.301 268.203 304.369H258.3V314.271ZM252.66 288.826C247.728 289.914 243.845 293.797 242.757 298.729H252.66V288.826ZM258.3 298.729H268.203C267.115 293.797 263.232 289.914 258.3 288.826V298.729Z" fill="#FDCF08"/>
<path d="M859.725 261.808V350H837.041V283.644H815.205V350H793.369V283.644H770.685V350H748.849V261.808H859.725Z" fill="#17294A"/>
<path d="M726.486 350L689.598 386.464H672.426V372.26L695.534 350H638.294V261.808H660.13V328.164H704.65V261.808H726.486V350Z" fill="#17294A"/>
<path d="M615.517 386.252H527.325V364.416H593.681V350H527.325V261.808H615.517V386.252ZM593.681 328.164V283.644H549.161V328.164H593.681Z" fill="#17294A"/>
<defs>
<linearGradient id="paint0_linear_2956_85" x1="207.221" y1="200.812" x2="207.221" y2="333.26" gradientUnits="userSpaceOnUse">
<stop stop-color="#FDCF08"/>
<stop offset="0.785091" stop-color="#FDCF08"/>
<stop offset="0.89197" stop-color="#FDCF08" stop-opacity="0.7"/>
<stop offset="1" stop-color="#FDCF08" stop-opacity="0.3"/>
</linearGradient>
<linearGradient id="paint1_linear_2956_85" x1="303.033" y1="235.332" x2="303.033" y2="333.259" gradientUnits="userSpaceOnUse">
<stop stop-color="#FDCF08"/>
<stop offset="0.734511" stop-color="#FDCF08"/>
<stop offset="0.850543" stop-color="#FDCF08" stop-opacity="0.7"/>
<stop offset="1" stop-color="#FDCF08" stop-opacity="0.3"/>
</linearGradient>
</defs>
</svg>
